<!DOCTYPE svg PUBLIC "-//W3C//DTD SVG 1.1//EN" "http://www.w3.org/Graphics/SVG/1.1/DTD/svg11.dtd">
<!-- Uploaded to: SVG Repo, www.svgrepo.com, Transformed by: SVG Repo Mixer Tools -->
<svg fill="#3d3d3d" version="1.1" id="Capa_1" xmlns="http://www.w3.org/2000/svg" xmlns:xlink="http://www.w3.org/1999/xlink" width="800px" height="800px" viewBox="0 0 124.5 124.5" xml:space="preserve">
<g id="SVGRepo_bgCarrier" stroke-width="0"/>
<g id="SVGRepo_tracerCarrier" stroke-linecap="round" stroke-linejoin="round"/>
<g id="SVGRepo_iconCarrier"> <g> <path d="M116.35,124.5c3.3,0,6-2.699,6-6V6c0-3.3-2.7-6-6-6h-36c-3.3,0-6,2.7-6,6v112.5c0,3.301,2.7,6,6,6H116.35z"/> <path d="M44.15,124.5c3.3,0,6-2.699,6-6V6c0-3.3-2.7-6-6-6h-36c-3.3,0-6,2.7-6,6v112.5c0,3.301,2.7,6,6,6H44.15z"/> </g> </g>
</svg>